<svg width="40" height="40" viewBox="0 0 40 40" fill="none" xmlns="http://www.w3.org/2000/svg">
<g opacity="0.4">
<mask id="path-1-inside-1_35_26" fill="white">
<path d="M26.3438 16.75C26.3646 16.8333 26.375 16.9688 26.375 17.1562C26.375 18.2604 26.1667 19.3646 25.75 20.4688C25.3333 21.5521 24.7396 22.5521 23.9688 23.4688C23.2188 24.3646 22.2396 25.0938 21.0312 25.6562C19.8229 26.2188 18.4896 26.5 17.0312 26.5C15.1979 26.5 13.5208 26.0104 12 25.0312C12.2292 25.0521 12.4896 25.0625 12.7812 25.0625C14.3021 25.0625 15.6667 24.5938 16.875 23.6562C16.1458 23.6562 15.5 23.4479 14.9375 23.0312C14.3958 22.5938 14.0208 22.0521 13.8125 21.4062C14.0208 21.4271 14.2188 21.4375 14.4062 21.4375C14.6979 21.4375 14.9896 21.4062 15.2812 21.3438C14.7812 21.2396 14.3333 21.0312 13.9375 20.7188C13.5417 20.4062 13.2292 20.0312 13 19.5938C12.7708 19.1354 12.6562 18.6458 12.6562 18.125V18.0625C13.1146 18.3333 13.6042 18.4792 14.125 18.5C13.1458 17.8333 12.6562 16.9167 12.6562 15.75C12.6562 15.1667 12.8125 14.6146 13.125 14.0938C13.9375 15.1146 14.9271 15.9271 16.0938 16.5312C17.2812 17.1354 18.5417 17.4688 19.875 17.5312C19.8333 17.2812 19.8125 17.0312 19.8125 16.7812C19.8125 15.8854 20.125 15.1146 20.75 14.4688C21.3958 13.8229 22.1667 13.5 23.0625 13.5C24.0208 13.5 24.8229 13.8438 25.4688 14.5312C26.2188 14.3854 26.9167 14.125 27.5625 13.75C27.3125 14.5208 26.8333 15.125 26.125 15.5625C26.75 15.4792 27.375 15.3021 28 15.0312C27.5417 15.6979 26.9896 16.2708 26.3438 16.75Z"/>
<path d="M40 20C40 31.0457 31.0457 40 20 40C8.9543 40 0 31.0457 0 20C0 8.9543 8.9543 0 20 0C31.0457 0 40 8.9543 40 20Z"/>
</mask>
<path d="M26.3438 16.75L25.7479 15.9469L25.2117 16.3448L25.3736 16.9925L26.3438 16.75ZM25.75 20.4688L26.6834 20.8277L26.6856 20.8218L25.75 20.4688ZM23.9688 23.4688L23.2034 22.8251L23.202 22.8268L23.9688 23.4688ZM12 25.0312L12.0905 24.0354L11.4587 25.8721L12 25.0312ZM16.875 23.6562L17.488 24.4463L19.7952 22.6562H16.875V23.6562ZM14.9375 23.0312L14.3092 23.8092L14.3254 23.8223L14.3423 23.8348L14.9375 23.0312ZM13.8125 21.4062L13.912 20.4112L12.3917 20.2592L12.8608 21.7133L13.8125 21.4062ZM15.2812 21.3438L15.4908 22.3216L15.4852 20.3648L15.2812 21.3438ZM13 19.5938L12.1056 20.041L12.1098 20.0494L12.1142 20.0578L13 19.5938ZM12.6562 18.0625L13.165 17.2016L11.6562 16.3101V18.0625H12.6562ZM14.125 18.5L14.085 19.4992L17.5744 19.6388L14.6878 17.6734L14.125 18.5ZM13.125 14.0938L13.9074 13.471L13.0094 12.3427L12.2675 13.5793L13.125 14.0938ZM16.0938 16.5312L15.6339 17.4193L15.6403 17.4225L16.0938 16.5312ZM19.875 17.5312L19.8282 18.5302L21.0649 18.5881L20.8614 17.3669L19.875 17.5312ZM20.75 14.4688L20.0429 13.7616L20.0371 13.7674L20.0314 13.7733L20.75 14.4688ZM25.4688 14.5312L24.7399 15.2159L25.1178 15.6182L25.6596 15.5129L25.4688 14.5312ZM27.5625 13.75L28.5137 14.0585L29.3197 11.5733L27.0604 12.8852L27.5625 13.75ZM26.125 15.5625L25.5995 14.7117L26.2572 16.5537L26.125 15.5625ZM28 15.0312L28.824 15.5978L30.7957 12.7299L27.6024 14.1137L28 15.0312ZM25.3736 16.9925C25.3685 16.9722 25.3671 16.9613 25.3675 16.9637C25.3677 16.9653 25.3688 16.9739 25.3701 16.9908C25.3728 17.0254 25.375 17.0792 25.375 17.1562H27.375C27.375 16.9598 27.3667 16.7186 27.3139 16.5075L25.3736 16.9925ZM25.375 17.1562C25.375 18.1317 25.1914 19.1165 24.8144 20.1157L26.6856 20.8218C27.1419 19.6126 27.375 18.3891 27.375 17.1562H25.375ZM24.8167 20.1098C24.4411 21.0863 23.9051 21.9906 23.2034 22.8252L24.7341 24.1123C25.574 23.1135 26.2256 22.0179 26.6833 20.8277L24.8167 20.1098ZM23.202 22.8268C22.5585 23.5954 21.7034 24.2403 20.6092 24.7497L21.4533 26.5628C22.7758 25.9472 23.879 25.1338 24.7355 24.1107L23.202 22.8268ZM20.6092 24.7497C19.5451 25.245 18.3577 25.5 17.0312 25.5V27.5C18.6215 27.5 20.1007 27.1925 21.4533 26.5628L20.6092 24.7497ZM17.0312 25.5C15.3871 25.5 13.8984 25.0642 12.5413 24.1904L11.4587 25.8721C13.1432 26.9566 15.0087 27.5 17.0312 27.5V25.5ZM11.9095 26.0271C12.1754 26.0513 12.4669 26.0625 12.7812 26.0625V24.0625C12.5122 24.0625 12.2829 24.0528 12.0905 24.0354L11.9095 26.0271ZM12.7812 26.0625C14.5254 26.0625 16.1054 25.5191 17.488 24.4463L16.262 22.8662C15.228 23.6684 14.0788 24.0625 12.7812 24.0625V26.0625ZM16.875 22.6562C16.3506 22.6562 15.9155 22.5112 15.5327 22.2277L14.3423 23.8348C15.0845 24.3846 15.941 24.6562 16.875 24.6562V22.6562ZM15.5658 22.2533C15.1713 21.9346 14.9112 21.555 14.7642 21.0992L12.8608 21.7133C13.1305 22.5492 13.6204 23.2529 14.3092 23.8092L15.5658 22.2533ZM13.713 22.4013C13.9506 22.4251 14.182 22.4375 14.4062 22.4375V20.4375C14.2555 20.4375 14.091 20.4291 13.912 20.4112L13.713 22.4013ZM14.4062 22.4375C14.7699 22.4375 15.1318 22.3985 15.4908 22.3216L15.0717 20.3659C14.8474 20.414 14.6259 20.4375 14.4062 20.4375V22.4375ZM15.4852 20.3648C15.1349 20.2918 14.8297 20.1491 14.5571 19.9339L13.3179 21.5036C13.8369 21.9134 14.4276 22.1874 15.0773 22.3227L15.4852 20.3648ZM14.5571 19.9339C14.2692 19.7065 14.0484 19.4401 13.8858 19.1297L12.1142 20.0578C12.4099 20.6224 12.8141 21.106 13.3179 21.5036L14.5571 19.9339ZM13.8944 19.1465C13.7359 18.8294 13.6562 18.4932 13.6562 18.125H11.6562C11.6562 18.7984 11.8058 19.4414 12.1056 20.041L13.8944 19.1465ZM13.6562 18.125V18.0625H11.6562V18.125H13.6562ZM12.1475 18.9234C12.7451 19.2765 13.3953 19.4716 14.085 19.4992L14.165 17.5008C13.8131 17.4867 13.4841 17.3901 13.165 17.2016L12.1475 18.9234ZM14.6878 17.6734C13.9771 17.1895 13.6562 16.5797 13.6562 15.75H11.6562C11.6562 17.2536 12.3146 18.4771 13.5622 19.3266L14.6878 17.6734ZM13.6562 15.75C13.6562 15.3556 13.7592 14.9804 13.9825 14.6082L12.2675 13.5793C11.8658 14.2488 11.6562 14.9778 11.6562 15.75H13.6562ZM12.3426 14.7165C13.2434 15.8483 14.3431 16.7508 15.6339 17.4192L16.5536 15.6433C15.511 15.1034 14.6316 14.3809 13.9074 13.471L12.3426 14.7165ZM15.6403 17.4225C16.9544 18.0911 18.3535 18.461 19.8282 18.5302L19.9218 16.5323C18.7299 16.4765 17.6081 16.1797 16.5472 15.64L15.6403 17.4225ZM20.8614 17.3669C20.8287 17.1704 20.8125 16.9754 20.8125 16.7812H18.8125C18.8125 17.0871 18.838 17.3921 18.8886 17.6956L20.8614 17.3669ZM20.8125 16.7812C20.8125 16.1459 21.0234 15.6242 21.4686 15.1642L20.0314 13.7733C19.2266 14.605 18.8125 15.6249 18.8125 16.7812H20.8125ZM21.4571 15.1759C21.9195 14.7134 22.4376 14.5 23.0625 14.5V12.5C21.8957 12.5 20.8722 12.9324 20.0429 13.7616L21.4571 15.1759ZM23.0625 14.5C23.7498 14.5 24.2865 14.7332 24.7399 15.2159L26.1976 13.8466C25.3594 12.9543 24.2919 12.5 23.0625 12.5V14.5ZM25.6596 15.5129C26.5166 15.3462 27.3201 15.0471 28.0646 14.6148L27.0604 12.8852C26.5133 13.2029 25.9209 13.4246 25.2779 13.5496L25.6596 15.5129ZM26.6113 13.4415C26.4366 13.9802 26.1122 14.3951 25.5995 14.7117L26.6505 16.4133C27.5545 15.8549 28.1884 15.0615 28.5137 14.0585L26.6113 13.4415ZM26.2572 16.5537C26.9806 16.4573 27.6947 16.2534 28.3976 15.9488L27.6024 14.1137C27.0553 14.3508 26.5194 14.5011 25.9928 14.5713L26.2572 16.5537ZM27.176 14.4647C26.7797 15.041 26.3046 15.5339 25.7479 15.9469L26.9396 17.5531C27.6746 17.0078 28.3036 16.3548 28.824 15.5978L27.176 14.4647ZM39 20C39 30.4934 30.4934 39 20 39V41C31.598 41 41 31.598 41 20H39ZM20 39C9.50659 39 1 30.4934 1 20H-1C-1 31.598 8.40202 41 20 41V39ZM1 20C1 9.50659 9.50659 1 20 1V-1C8.40202 -1 -1 8.40202 -1 20H1ZM20 1C30.4934 1 39 9.50659 39 20H41C41 8.40202 31.598 -1 20 -1V1Z" fill="white" mask="url(#path-1-inside-1_35_26)"/>
</g>
</svg>
